<?xml version="1.0" encoding="UTF-8" standalone="no"?>
<svg
   xmlns:dc="http://purl.org/dc/elements/1.1/"
   xmlns:cc="http://creativecommons.org/ns#"
   xmlns:rdf="http://www.w3.org/1999/02/22-rdf-syntax-ns#"
   xmlns:svg="http://www.w3.org/2000/svg"
   xmlns="http://www.w3.org/2000/svg"
   xmlns:sodipodi="http://sodipodi.sourceforge.net/DTD/sodipodi-0.dtd"
   xmlns:inkscape="http://www.inkscape.org/namespaces/inkscape"
   version="1.1"
   viewBox="0.0 0.0 348.0 348.0"
   fill="none"
   stroke="none"
   stroke-linecap="square"
   stroke-miterlimit="10"
   id="svg19"
   sodipodi:docname="complexKeypads.svg"
   inkscape:version="0.92.3 (2405546, 2018-03-11)">
  <metadata
     id="metadata25">
    <rdf:RDF>
      <cc:Work
         rdf:about="">
        <dc:format>image/svg+xml</dc:format>
        <dc:type
           rdf:resource="http://purl.org/dc/dcmitype/StillImage" />
      </cc:Work>
    </rdf:RDF>
  </metadata>
  <defs
     id="defs23" />
  <sodipodi:namedview
     pagecolor="#ffffff"
     bordercolor="#666666"
     borderopacity="1"
     objecttolerance="10"
     gridtolerance="10"
     guidetolerance="10"
     inkscape:pageopacity="0"
     inkscape:pageshadow="2"
     inkscape:window-width="1078"
     inkscape:window-height="1394"
     id="namedview21"
     showgrid="false"
     inkscape:zoom="1.9181287"
     inkscape:cx="196.85974"
     inkscape:cy="152.56778"
     inkscape:window-x="1070"
     inkscape:window-y="0"
     inkscape:window-maximized="0"
     inkscape:current-layer="svg19" />
  <clipPath
     id="p.0">
    <path
       d="m0 0l348.0 0l0 348.0l-348.0 0l0 -348.0z"
       clip-rule="nonzero"
       id="path2" />
  </clipPath>
  <g
     clip-path="url(#p.0)"
     id="g17">
    <path
       fill="#000000"
       fill-opacity="0.0"
       d="m0 0l348.0 0l0 348.0l-348.0 0z"
       fill-rule="nonzero"
       id="path5" />
    <path
       fill="#ffffff"
       d="m-6.0 0l348.0 0l0 347.9685l-348.0 0z"
       fill-rule="nonzero"
       id="path7" />
    <path
       fill="#000000"
       fill-opacity="0.0"
       d="m5.07874 5.7758217l336.9134 0l0 337.6693l-336.9134 0z"
       fill-rule="nonzero"
       id="path9" />
    <path
       stroke="#000000"
       stroke-width="2.0"
       stroke-linejoin="round"
       stroke-linecap="butt"
       d="m5.07874 5.7758217l336.9134 0l0 337.6693l-336.9134 0z"
       fill-rule="nonzero"
       id="path11" />
    <path
       fill="#ffffff"
       d="m282.73444 40.553925l0 0c0 -8.375591 6.966034 -15.165352 15.5590515 -15.165352l0 0c4.126526 0 8.084015 1.5977726 11.001923 4.441828c2.9178772 2.844057 4.557129 6.7014217 4.557129 10.723524l0 0c0 8.375595 -6.9660034 15.165356 -15.5590515 15.165356l0 0c-8.593018 0 -15.5590515 -6.7897606 -15.5590515 -15.165356z"
       fill-rule="nonzero"
       id="path13" />
    <path
       stroke="#000000"
       stroke-width="2.0"
       stroke-linejoin="round"
       stroke-linecap="butt"
       d="m282.73444 40.553925l0 0c0 -8.375591 6.966034 -15.165352 15.5590515 -15.165352l0 0c4.126526 0 8.084015 1.5977726 11.001923 4.441828c2.9178772 2.844057 4.557129 6.7014217 4.557129 10.723524l0 0c0 8.375595 -6.9660034 15.165356 -15.5590515 15.165356l0 0c-8.593018 0 -15.5590515 -6.7897606 -15.5590515 -15.165356z"
       fill-rule="nonzero"
       id="path15" />
  </g>
  <rect
     style="fill:#ffffff;stroke:#000000;stroke-opacity:1"
     id="rect33"
     width="75"
     height="75"
     x="37.601696"
     y="82.593224"
     ry="2.7755576e-017" />
  <rect
     ry="2.7755576e-017"
     y="82.593224"
     x="122.23306"
     height="75"
     width="75"
     id="rect4545"
     style="fill:#ffffff;stroke:#000000;stroke-opacity:1" />
  <rect
     style="fill:#ffffff;stroke:#000000;stroke-opacity:1"
     id="rect4547"
     width="75"
     height="75"
     x="207.6017"
     y="82.593224"
     ry="2.7755576e-017" />
  <rect
     style="fill:#ffffff;stroke:#000000;stroke-opacity:1"
     id="rect4551"
     width="75"
     height="75"
     x="122.23306"
     y="166.59323"
     ry="2.7755576e-017" />
  <rect
     style="fill:#ffffff;stroke:#000000;stroke-opacity:1"
     id="rect4576"
     width="75"
     height="75"
     x="37.601696"
     y="166.59323"
     ry="2.7755576e-017" />
  <rect
     style="fill:#ffffff;stroke:#000000;stroke-opacity:1"
     id="rect4578"
     width="75"
     height="75"
     x="207.6017"
     y="166.59323"
     ry="2.7755576e-017" />
  <rect
     ry="2.7755576e-017"
     y="250.59323"
     x="122.23306"
     height="75"
     width="75"
     id="rect4580"
     style="fill:#ffffff;stroke:#000000;stroke-opacity:1" />
  <rect
     ry="2.7755576e-017"
     y="250.59323"
     x="37.601696"
     height="75"
     width="75"
     id="rect4582"
     style="fill:#ffffff;stroke:#000000;stroke-opacity:1" />
  <rect
     ry="2.7755576e-017"
     y="250.59323"
     x="207.6017"
     height="75"
     width="75"
     id="rect4584"
     style="fill:#ffffff;stroke:#000000;stroke-opacity:1" />
  <rect
     style="fill:#ffffff;stroke:#000000;stroke-opacity:1"
     id="rect4602"
     width="23.961864"
     height="7.3728814"
     x="62.295094"
     y="87.193588"
     ry="2.7755599e-017" />
  <rect
     ry="2.7755599e-017"
     y="87.193588"
     x="148.29509"
     height="7.3728814"
     width="23.961864"
     id="rect4604"
     style="fill:#ffffff;stroke:#000000;stroke-opacity:1" />
  <rect
     style="fill:#ffffff;stroke:#000000;stroke-opacity:1"
     id="rect4606"
     width="23.961864"
     height="7.3728814"
     x="234.29509"
     y="87.193588"
     ry="2.7755599e-017" />
  <rect
     ry="2.7755599e-017"
     y="171.19359"
     x="62.295094"
     height="7.3728814"
     width="23.961864"
     id="rect4608"
     style="fill:#ffffff;stroke:#000000;stroke-opacity:1" />
  <rect
     style="fill:#ffffff;stroke:#000000;stroke-opacity:1"
     id="rect4610"
     width="23.961864"
     height="7.3728814"
     x="148.29509"
     y="171.19359"
     ry="2.7755599e-017" />
  <rect
     ry="2.7755599e-017"
     y="171.19359"
     x="234.29509"
     height="7.3728814"
     width="23.961864"
     id="rect4612"
     style="fill:#ffffff;stroke:#000000;stroke-opacity:1" />
  <rect
     style="fill:#ffffff;stroke:#000000;stroke-opacity:1"
     id="rect4614"
     width="23.961864"
     height="7.3728814"
     x="62.295094"
     y="255.1936"
     ry="2.7755599e-017" />
  <rect
     ry="2.7755599e-017"
     y="255.1936"
     x="148.29509"
     height="7.3728814"
     width="23.961864"
     id="rect4616"
     style="fill:#ffffff;stroke:#000000;stroke-opacity:1" />
  <rect
     style="fill:#ffffff;stroke:#000000;stroke-opacity:1"
     id="rect4618"
     width="23.961864"
     height="7.3728814"
     x="234.29509"
     y="255.1936"
     ry="2.7755599e-017" />
  <text
     xml:space="preserve"
     style="font-style:normal;font-weight:normal;font-size:52.0835228px;line-height:1.25;font-family:sans-serif;letter-spacing:0px;word-spacing:0px;fill:#000000;fill-opacity:1;stroke:none;stroke-width:1.30208802"
     x="57.249973"
     y="148.26874"
     id="text840"
     transform="scale(1.0259825,0.97467551)"><tspan
       sodipodi:role="line"
       id="tspan838"
       x="57.249973"
       y="148.26874"
       style="stroke-width:1.30208802">δ</tspan></text>
  <text
     xml:space="preserve"
     style="font-style:normal;font-weight:normal;font-size:50.05204773px;line-height:1.25;font-family:sans-serif;letter-spacing:0px;word-spacing:0px;fill:#000000;fill-opacity:1;stroke:none;stroke-width:1.25130117"
     x="142.07738"
     y="140.98569"
     id="text844"
     transform="scale(1.016841,0.98343793)"><tspan
       sodipodi:role="line"
       id="tspan842"
       x="142.07738"
       y="140.98569"
       style="stroke-width:1.25130117">β</tspan></text>
  <text
     xml:space="preserve"
     style="font-style:normal;font-weight:normal;font-size:47.51996231px;line-height:1.25;font-family:sans-serif;letter-spacing:0px;word-spacing:0px;fill:#000000;fill-opacity:1;stroke:none;stroke-width:1.18799913"
     x="228.15764"
     y="140.08716"
     id="text848"
     transform="scale(1.021706,0.97875515)"><tspan
       sodipodi:role="line"
       id="tspan846"
       x="228.15764"
       y="140.08716"
       style="stroke-width:1.18799913">ζ</tspan></text>
  <text
     xml:space="preserve"
     style="font-style:normal;font-weight:normal;font-size:52.18188095px;line-height:1.25;font-family:sans-serif;letter-spacing:0px;word-spacing:0px;fill:#000000;fill-opacity:1;stroke:none;stroke-width:1.30454695"
     x="57.957119"
     y="217.09047"
     id="text852"
     transform="scale(1.00599,0.99404568)"><tspan
       sodipodi:role="line"
       id="tspan850"
       x="57.957119"
       y="217.09047"
       style="stroke-width:1.30454695">μ</tspan></text>
  <text
     xml:space="preserve"
     style="font-style:normal;font-weight:normal;font-size:53.32030106px;line-height:1.25;font-family:sans-serif;letter-spacing:0px;word-spacing:0px;fill:#000000;fill-opacity:1;stroke:none;stroke-width:1.33300757"
     x="148.44994"
     y="221.39618"
     id="text856"
     transform="scale(0.96843295,1.032596)"><tspan
       sodipodi:role="line"
       id="tspan854"
       x="148.44994"
       y="221.39618"
       style="stroke-width:1.33300757">Ξ</tspan></text>
  <text
     xml:space="preserve"
     style="font-style:normal;font-weight:normal;font-size:50.30827332px;line-height:1.25;font-family:sans-serif;letter-spacing:0px;word-spacing:0px;fill:#000000;fill-opacity:1;stroke:none;stroke-width:1.25770688"
     x="234.7245"
     y="218.84259"
     id="text860"
     transform="scale(0.96870352,1.0323076)"><tspan
       sodipodi:role="line"
       id="tspan858"
       x="234.7245"
       y="218.84259"
       style="stroke-width:1.25770688">Φ</tspan></text>
  <text
     xml:space="preserve"
     style="font-style:normal;font-weight:normal;font-size:54.87913132px;line-height:1.25;font-family:sans-serif;letter-spacing:0px;word-spacing:0px;fill:#000000;fill-opacity:1;stroke:none;stroke-width:1.37197828"
     x="56.610027"
     y="301.65854"
     id="text864"
     transform="scale(0.99068262,1.009405)"><tspan
       sodipodi:role="line"
       id="tspan862"
       x="56.610027"
       y="301.65854"
       style="stroke-width:1.37197828">σ</tspan></text>
  <text
     xml:space="preserve"
     style="font-style:normal;font-weight:normal;font-size:79.55312347px;line-height:1.25;font-family:sans-serif;letter-spacing:0px;word-spacing:0px;fill:#000000;fill-opacity:1;stroke:none;stroke-width:1.98882818"
     x="144.37303"
     y="302.69269"
     id="text868"
     transform="scale(1.0135131,0.98666709)"><tspan
       sodipodi:role="line"
       id="tspan866"
       x="144.37303"
       y="302.69269"
       style="stroke-width:1.98882818">م</tspan></text>
  <text
     xml:space="preserve"
     style="font-style:normal;font-weight:normal;font-size:62.23955154px;line-height:1.25;font-family:sans-serif;letter-spacing:0px;word-spacing:0px;fill:#000000;fill-opacity:1;stroke:none;stroke-width:1.55598879"
     x="222.61923"
     y="314.68796"
     id="text872"
     transform="scale(1.0204616,0.97994868)"><tspan
       sodipodi:role="line"
       id="tspan870"
       x="222.61923"
       y="314.68796"
       style="stroke-width:1.55598879">κ</tspan></text>
</svg>
